<svg xmlns="http://www.w3.org/2000/svg" xmlns:xlink="http://www.w3.org/1999/xlink" height="128" width="128">
  <g opacity="1">
    <g opacity="1">
      <path fill="rgb(0,0,0)" fill-opacity="1" opacity="1" fill-rule="evenodd" d="M10 0L118 0C123.51915024494 0 128 4.48084975506 128 10L128 118C128 123.51915024494 123.51915024494 128 118 128L10 128C4.480849755060001 128 1.7763568394002505e-15 123.51915024494 0 118L0 10C0 4.480849755060001 4.480849755059998 1.7763568394002505e-15 9.999999999999998 0Z"/>
    </g>
    <g transform="translate(64, 62.5) rotate(-90.00003218077504) translate(-64, -62.5)" opacity="1">
      <g transform="translate(69.5, 62.5) rotate(90.00003218077504) translate(-69.5, -62.5)" opacity="1">
        <path fill="rgb(250,153,23)" fill-opacity="1" opacity="1" fill-rule="evenodd" d="M67.25 32.5L67.25 32.5L84.5 92.5L54.5 92.5L67.25 32.5Z"/>
      </g>
      <g transform="translate(47.5, 62.5) rotate(90.00003218077504) translate(-47.5, -62.5)" opacity="1">
        <path fill="rgb(250,153,23)" fill-opacity="1" opacity="1" fill-rule="evenodd" d="M46.75 32.5L46.75 32.5L52.5 92.5L42.5 92.5L46.75 32.5Z"/>
      </g>
      <g transform="translate(80.5, 62.5) rotate(90.00003218077504) translate(-80.5, -62.5)" opacity="1">
        <path fill="rgb(250,153,23)" fill-opacity="1" opacity="1" fill-rule="evenodd" d="M77.5 32.5L77.5 32.5L100.5 92.5L60.5 92.5L77.5 32.5Z"/>
      </g>
    </g>
  </g>
</svg>